<?xml version="1.0" encoding="UTF-8" standalone="no"?>
<svg
   xmlns:dc="http://purl.org/dc/elements/1.1/"
   xmlns:cc="http://creativecommons.org/ns#"
   xmlns:rdf="http://www.w3.org/1999/02/22-rdf-syntax-ns#"
   xmlns:svg="http://www.w3.org/2000/svg"
   xmlns="http://www.w3.org/2000/svg"
   viewBox="0 0 1889.76 1889.76"
   height="1889.76"
   width="1889.76"
   xml:space="preserve"
   id="svg2"
   version="1.1"><metadata
     id="metadata8"><rdf:RDF><cc:Work
         rdf:about=""><dc:format>image/svg+xml</dc:format><dc:type
           rdf:resource="http://purl.org/dc/dcmitype/StillImage" /></cc:Work></rdf:RDF></metadata><defs
     id="defs6"><clipPath
       id="clipPath18"
       clipPathUnits="userSpaceOnUse"><path
         id="path16"
         d="M 0,1417.323 H 1417.323 V 0 H 0 Z" /></clipPath></defs><g
     transform="matrix(1.3333333,0,0,-1.3333333,0,1889.76)"
     id="g10"><g
       id="g12"><g
         clip-path="url(#clipPath18)"
         id="g14"><g
           transform="translate(708.249,336.6412)"
           id="g20"><path
             id="path22"
             style="fill:#ffffff;fill-opacity:1;fill-rule:nonzero;stroke:none"
             d="m 0,0 c 104.321,0 208.642,-0.019 312.963,0.007 67.69,0.016 112.599,44.681 112.616,112.116 0.043,173.077 0.036,346.155 0.004,519.232 -0.012,66.334 -43,111.715 -109.046,111.907 -211.011,0.613 -422.026,0.674 -633.036,-0.042 -65.178,-0.221 -108.197,-45.74 -108.225,-110.953 -0.074,-173.671 -0.092,-347.341 0.015,-521.012 C -424.668,44.619 -379.742,0.038 -312.962,0.011 -208.642,-0.031 -104.321,0 0,0" /></g><g
           transform="translate(1054.9355,442.1158)"
           id="g24"><path
             id="path26"
             style="fill:#2f8c5d;fill-opacity:1;fill-rule:nonzero;stroke:none"
             d="M 0,0 C 0.999,10.515 1.897,15.569 1.899,20.625 1.971,188.939 2,357.254 1.907,525.569 c -0.013,26.076 -9.904,35.809 -37.211,35.827 -207.429,0.139 -414.86,0.143 -622.29,-0.004 -27.505,-0.02 -37.228,-10.075 -37.247,-37.874 -0.114,-167.13 -0.081,-334.259 0.025,-501.389 0.004,-5.949 1.286,-11.899 2.541,-22.768 6.908,8.475 10.74,12.696 14.041,17.297 41.765,58.222 83.241,116.653 125.257,174.693 19.786,27.332 48.661,26.866 68.706,-0.66 12.538,-17.216 24.842,-34.641 36.405,-52.519 7.793,-12.048 13.258,-14.315 23.121,-1.194 40.573,53.965 82.107,107.208 123.121,160.844 20.957,27.407 49.409,27.418 70.654,-0.146 63.262,-82.079 126.548,-164.14 189.925,-246.131 C -28.635,35.49 -15.774,19.782 0,0 m -346.687,-105.475 c -104.32,0 -208.641,-0.031 -312.962,0.011 -66.78,0.027 -111.706,44.609 -111.747,111.244 -0.107,173.671 -0.088,347.342 -0.014,521.012 0.028,65.213 43.047,110.732 108.224,110.954 211.011,0.715 422.026,0.654 633.037,0.041 C 35.896,637.595 78.885,592.215 78.896,525.88 78.929,352.803 78.936,179.726 78.893,6.648 78.876,-60.787 33.967,-105.451 -33.724,-105.468 c -104.321,-0.025 -208.641,-0.007 -312.963,-0.007" /></g><g
           transform="translate(444.084,843.5294)"
           id="g28"><path
             id="path30"
             style="fill:#40b875;fill-opacity:1;fill-rule:nonzero;stroke:none"
             d="M 0,0 C 0.975,44.697 35.906,77.687 80.73,76.246 124.013,74.853 157.517,39.459 156.439,-3.734 155.351,-47.372 119.382,-81.158 75.133,-80.107 31.528,-79.072 -0.969,-44.423 0,0" /></g></g></g></g></svg>