<svg xmlns="http://www.w3.org/2000/svg" viewBox="0 0 1417.32 1417.32"><defs><style>.cls-1{fill:#30b670;}</style></defs><title>Artboard 13</title><g id="Logo"><path class="cls-1" d="M495.74,1000.06c-7.58,8.71-12.13,14.58-17.32,19.81-32.85,33.1-65.37,66.54-98.92,98.91-28.84,27.83-75.59,15.34-86.48-22.7-5.91-20.63-.2-38.74,15.12-54.07,37.5-37.53,74.76-75.3,113-113.83-2.28-2.17-5.16-5-8.18-7.76-72.51-65.12-75.48-167.89-6.8-236.7,5-5.05,9.95-10.21,15.15-15.08,12.39-11.59,25.38-11.7,37.94-.21,38.65,35.36,67.55,76.52,76.46,129.48a58.17,58.17,0,0,0,2.33,7.5L587.67,755c-4.24-3.64-9.42-7.52-13.93-12.07-63.49-64.06-63.54-162.5-.2-226.59,5.92-6,11.71-12.13,18-17.77,11.7-10.58,24.64-10.44,36.5.09,40.64,36.1,68.92,79.41,78.1,133.86a19.12,19.12,0,0,0,.63,2.51l50.17-50.5c-5.26-4.6-13-10.13-19.23-17-58.48-64.35-56-159,5.45-220.77,5.26-5.27,10.47-10.6,15.82-15.78,13.18-12.76,27-13.06,40.16-.22,10.45,10.14,20.33,20.87,30.3,31.49,2.43,2.59,4.25,5.75,6.85,9.34,5.31-4.69,9-7.63,12.36-10.95,20.67-20.55,41.39-41.06,61.83-61.83,21.85-22.19,44.56-16.41,57.92-4.27,16.54,15,17.12,39.25.6,56.21q-43,44.19-87,87.47c-6.58,6.51-9.2,12.48-7.28,22.19,5.85,29.56,3.66,59.19-2.29,88.59-.37,1.85-.4,3.76-.75,7.17,4.28-.54,7.94-.71,11.46-1.5,27.12-6.08,54.38-7.29,81.77-2.2,8,1.5,13.54-2.27,18.83-7.56q44.67-44.62,89.56-89c17.15-16.91,42.3-16.22,57.61,1.2,12.36,14.07,13.62,33.39,1.9,48.07-7.64,9.57-16.65,18.08-25.34,26.77-17.84,17.82-35.88,35.44-52.91,52.23,12.69,13.5,23.88,26.42,36.15,38.22,19.78,19,20.48,31,1.61,50.84-26.64,28.05-57,49-96.32,55.91-51.09,9-95.3-4.07-134.15-37.4-9-7.77-17.5-16.22-25.87-24l-52.24,51.21c8,1.81,14.67,3.52,21.44,4.85,51.62,10.14,91.49,39.26,125.38,77.84,7.45,8.47,8,22.75,1.35,30.6C904.24,864.68,872.35,890,828.62,898c-59.74,10.94-108.85-7.58-150.13-50.45-4-4.11-7.86-8.29-10.21-9.32L616.4,888.59c8.45,2,17.48,4.08,26.53,6.13,48.51,11,85.77,39.63,118,75.86,7.65,8.59,8.61,22.61,1.88,30.55-27.1,32-58.37,57.48-101.16,65.85-54.88,10.72-102.44-3.19-143.19-40.87C510.92,1019.12,504.82,1010.55,495.74,1000.06Z"/><path class="cls-1" d="M1140,322.61c1.61,10.29-3,18.74-9.89,26-11.16,11.71-22.64,23.12-34.07,34.57q-55.6,55.66-111.3,111.25c-18.89,18.76-45.06,18.15-60.3-1-12.41-15.59-11.81-36.19,2.7-51.16,22.74-23.48,46.12-46.35,69.24-69.47,25-25,49.75-50.09,74.94-74.8,18.14-17.79,38.33-19.23,55.45-4.43C1135.43,301.05,1141.3,310.12,1140,322.61Z"/></g></svg>